<svg aria-hidden="true" style="position: absolute; width: 0; height: 0; overflow: hidden;" version="1.1" xmlns="http://www.w3.org/2000/svg" xmlns:xlink="http://www.w3.org/1999/xlink">
<defs>
<symbol id="icon-facebook" viewBox="0 0 32 32">
<path d="M21.32 5.32h2.94v-5.12c-0.52-0.040-2.26-0.2-4.26-0.2-4.2 0-7.1 2.64-7.1 7.52v4.48h-4.66v5.68h4.66v14.32h5.7v-14.32h4.46l0.7-5.68h-5.16v-3.92c0-1.64 0.44-2.76 2.72-2.76z"></path>
</symbol>
<symbol id="icon-instagram" viewBox="0 0 32 32">
<path d="M31.96 9.4c-0.027-1.401-0.296-2.73-0.767-3.96l0.027 0.080c-0.421-1.112-1.047-2.059-1.839-2.839l-0.001-0.001c-0.8-0.8-1.78-1.44-2.84-1.84-1-0.4-2.18-0.66-3.88-0.74-1.479-0.072-3.211-0.112-4.954-0.112-0.579 0-1.157 0.005-1.734 0.013l0.087-0.001c-4.34 0-4.88 0-6.6 0.1-1.7 0.060-2.86 0.34-3.86 0.74-1.112 0.421-2.059 1.047-2.839 1.839l-0.001 0.001c-0.8 0.8-1.44 1.78-1.84 2.84-0.4 1-0.66 2.2-0.74 3.88-0.082 1.578-0.128 3.426-0.128 5.284 0 0.463 0.003 0.925 0.009 1.386l-0.001-0.070c0 4.34 0 4.9 0.080 6.6s0.36 2.86 0.76 3.88c0.4 1.080 1.040 2.040 1.84 2.84s1.78 1.44 2.84 1.84c1 0.4 2.18 0.68 3.88 0.74 1.7 0.080 2.24 0.1 6.6 0.1 4.34 0 4.88 0 6.6-0.1 1.401-0.027 2.73-0.296 3.96-0.767l-0.080 0.027c2.155-0.852 3.828-2.525 4.661-4.625l0.019-0.055c0.4-1.020 0.66-2.2 0.74-3.88 0.080-1.7 0.080-2.26 0.080-6.6s0-4.88-0.080-6.6zM29.080 22.48c-0.060 1.56-0.32 2.4-0.54 2.96-0.54 1.4-1.64 2.5-3.040 3.040-0.56 0.22-1.4 0.48-2.98 0.56-1.68 0.060-2.2 0.080-6.46 0.080s-4.78 0-6.46-0.080c-1.067-0.016-2.082-0.22-3.020-0.58l0.060 0.020c-0.722-0.27-1.337-0.679-1.839-1.199l-0.001-0.001c-0.519-0.504-0.928-1.119-1.189-1.806l-0.011-0.034c-0.333-0.879-0.53-1.895-0.54-2.956l-0-0.004c-0.070-1.484-0.11-3.223-0.11-4.972 0-0.523 0.004-1.046 0.011-1.567l-0.001 0.079c0-4.28 0-4.8 0.1-6.46 0.060-1.58 0.32-2.4 0.54-2.98 0.26-0.7 0.66-1.32 1.2-1.84 0.52-0.52 1.14-0.94 1.84-1.2 0.56-0.2 1.4-0.48 2.96-0.54 1.7-0.080 2.2-0.1 6.48-0.1 4.26 0 4.78 0.020 6.46 0.1 1.56 0.060 2.4 0.34 2.96 0.56 0.7 0.24 1.34 0.66 1.84 1.2 0.54 0.5 0.94 1.12 1.2 1.82 0.2 0.56 0.48 1.4 0.54 2.98 0.080 1.68 0.1 2.2 0.1 6.46s0 4.76-0.1 6.46z"></path>
<path d="M16.060 7.8c-0.121-0.006-0.263-0.010-0.405-0.010-4.54 0-8.22 3.68-8.22 8.22s3.68 8.22 8.22 8.22c0.143 0 0.284-0.004 0.425-0.011l-0.020 0.001c4.54 0 8.22-3.68 8.22-8.22s-3.68-8.22-8.22-8.22v0zM16.060 21.34c-2.949 0-5.34-2.391-5.34-5.34s2.391-5.34 5.34-5.34v0c2.949 0 5.34 2.391 5.34 5.34s-2.391 5.34-5.34 5.34v0zM26.52 7.46c0 1.060-0.86 1.92-1.92 1.92s-1.92-0.86-1.92-1.92v0c0-1.060 0.86-1.92 1.92-1.92s1.92 0.86 1.92 1.92v0z"></path>
</symbol>
<symbol id="icon-linkedin" viewBox="0 0 32 32">
<path d="M32 32v-11.74c0-5.74-1.24-10.16-7.94-10.16-3.24 0-5.4 1.76-6.28 3.44h-0.1v-2.9h-6.36v21.36h6.62v-10.6c0-2.8 0.54-5.48 4-5.48 3.4 0 3.44 3.18 3.44 5.66v10.42h6.6zM0.52 10.64h6.64v21.36h-6.64v-21.36zM3.84 0c-2.12 0-3.84 1.72-3.84 3.84s1.72 3.88 3.84 3.88 3.84-1.76 3.84-3.88-1.72-3.84-3.84-3.84z"></path>
</symbol>
<symbol id="icon-twitter" viewBox="0 0 32 32">
<path d="M32 6.080c-1.2 0.52-2.46 0.86-3.78 1.040 1.36-0.8 2.4-2.1 2.88-3.64-1.26 0.76-2.66 1.3-4.16 1.6-1.202-1.272-2.901-2.063-4.785-2.063-3.634 0-6.58 2.946-6.58 6.58 0 0.519 0.060 1.023 0.174 1.508l-0.009-0.045c-5.46-0.281-10.261-2.881-13.473-6.826l-0.027-0.034c-0.554 0.945-0.881 2.081-0.881 3.294 0 2.264 1.14 4.263 2.878 5.451l0.023 0.015c-1.090-0.028-2.106-0.321-2.993-0.817l0.033 0.017v0.060c0.001 3.17 2.237 5.817 5.217 6.452l0.043 0.008c-0.508 0.142-1.092 0.224-1.695 0.224-0.448 0-0.885-0.045-1.307-0.131l0.042 0.007c0.875 2.617 3.27 4.484 6.111 4.56l0.009 0c-2.22 1.754-5.060 2.814-8.147 2.814-0.554 0-1.101-0.034-1.637-0.101l0.064 0.006c2.824 1.844 6.282 2.94 9.995 2.94 0.023 0 0.046-0 0.068-0h-0.004c12.080 0 18.68-10 18.68-18.66l-0.020-0.86c1.296-0.936 2.385-2.063 3.25-3.353l0.030-0.047z"></path>
</symbol>
</defs>
</svg>
